<svg xmlns="http://www.w3.org/2000/svg" xmlns:xlink="http://www.w3.org/1999/xlink" width="143.537" height="77.539" viewBox="0 0 143.537 77.539">
  <defs>
    <clipPath id="clip-path">
      <rect id="Rectangle_462" data-name="Rectangle 462" width="143.537" height="77.539" fill="none"/>
    </clipPath>
  </defs>
  <g id="Illustration_10" data-name="Illustration 10" transform="translate(71.768 38.77)">
    <g id="Groupe_2370" data-name="Groupe 2370" transform="translate(-71.768 -38.77)" clip-path="url(#clip-path)">
      <path id="Tracé_556" data-name="Tracé 556" d="M116.118,76.292c7.27,0,11.818-4.169,11.818-11.473V49.9h-6.65V64.819c0,3.2-1.9,5.375-5.168,5.375s-5.168-2.171-5.168-5.375V49.9H104.3V64.819c0,7.27,4.582,11.473,11.818,11.473" transform="translate(-68.364 -32.707)" fill="#fff"/>
      <path id="Tracé_557" data-name="Tracé 557" d="M196.337,53.547a6.234,6.234,0,0,1,6.443,5.375H189.688a6.587,6.587,0,0,1,6.65-5.375m12.92,7.408c0-8.166-5.582-12.955-12.92-12.955-8.028,0-13.437,5.823-13.437,13.506,0,6.891,4.341,13.472,13.988,13.472a19.5,19.5,0,0,0,11.267-3.549L205.5,66.743a15.746,15.746,0,0,1-8.338,2.584c-4.41,0-6.719-2.377-7.511-5.478h19.329a19.286,19.286,0,0,0,.241-2.929" transform="translate(-119.883 -31.462)" fill="#fff"/>
      <path id="Tracé_558" data-name="Tracé 558" d="M275.646,74.688c6.305,0,10.267-3.583,10.267-8.269,0-3.032-1.481-5-4.341-6.512a65.367,65.367,0,0,0-6.2-2.515c-1.619-.62-2.274-1.482-2.274-2.377a2.722,2.722,0,0,1,2.929-2.171,8.751,8.751,0,0,1,5.926,2.55l3.308-4.307a12.275,12.275,0,0,0-9.027-3.687c-5.857,0-9.647,3.273-9.647,7.752,0,2.963,1.516,5.237,4.445,6.684,1.55.792,4.961,1.895,6.374,2.55s1.861,1.275,1.861,2.205c0,1.482-1.516,2.515-3.549,2.515a9.616,9.616,0,0,1-7.132-3.583L265,69.726a13.274,13.274,0,0,0,10.646,4.961" transform="translate(-173.696 -31.069)" fill="#fff"/>
      <path id="Tracé_559" data-name="Tracé 559" d="M351.612,51.549a8.562,8.562,0,0,1-4.307,1.309c-2.515,0-3.652-1.55-3.652-4.548v-10.2h8.51V32.53h-8.476V23.4l-6.615,3.032v6.1H332.8v5.582H337V48.758c0,6.684,3.066,10.164,8.992,10.164a14.224,14.224,0,0,0,7.614-2.136Z" transform="translate(-218.136 -15.338)" fill="#fff"/>
      <path id="Tracé_560" data-name="Tracé 560" d="M97.676,174.379a8.425,8.425,0,0,0,7.546-4.238l-3.342-1.964a4.754,4.754,0,0,1-4.1,2.412,4.565,4.565,0,1,1,.069-9.13,4.789,4.789,0,0,1,4.1,2.446l3.342-1.826a7.985,7.985,0,0,0-7.477-4.479c-5.1,0-8.614,3.549-8.614,8.407a8.152,8.152,0,0,0,8.51,8.407" transform="translate(-58.467 -103.3)" fill="#3dcfd2"/>
      <path id="Tracé_561" data-name="Tracé 561" d="M142.3,160.27h4.135v-8.614c0-2.412,1.516-4.066,3.687-4.066s3.342,1.378,3.342,3.962v8.682H157.6v-9.785c0-4.548-3-6.684-6.236-6.684a5.931,5.931,0,0,0-5.065,2.515V136.6h-4Z" transform="translate(-93.272 -89.535)" fill="#3dcfd2"/>
      <path id="Tracé_562" data-name="Tracé 562" d="M202.348,170.658a4.467,4.467,0,0,1-4.479-4.651,4.418,4.418,0,0,1,4.479-4.617,4.486,4.486,0,0,1,4.514,4.617,4.537,4.537,0,0,1-4.514,4.651m4.445-12.645v1.929a6.719,6.719,0,0,0-5.134-2.343c-4.548,0-7.959,3.549-7.959,8.372s3.308,8.476,7.959,8.476a6.787,6.787,0,0,0,5.134-2.24v1.861h3.962v-16.09Z" transform="translate(-126.962 -103.3)" fill="#3dcfd2"/>
      <path id="Tracé_563" data-name="Tracé 563" d="M253.2,173.9h4.135V165.29c0-2.412,1.516-4.066,3.687-4.066s3.377,1.378,3.377,3.962v8.683h4.134v-9.785c0-4.548-3.032-6.684-6.271-6.684a5.6,5.6,0,0,0-5.03,2.687v-2.24H253.2Z" transform="translate(-165.962 -103.169)" fill="#3dcfd2"/>
      <path id="Tracé_564" data-name="Tracé 564" d="M313.348,170.449a4.532,4.532,0,1,1,4.445-4.548,4.374,4.374,0,0,1-4.445,4.548m4.514-12.438v1.757A6.478,6.478,0,0,0,312.9,157.6a8.043,8.043,0,0,0-8.2,8.269c0,4.858,3.273,8.2,7.993,8.2A6.4,6.4,0,0,0,317.655,172v.827c0,2.515-1.723,4.445-5,4.445a10.236,10.236,0,0,1-5.616-1.895l-1.619,3.135a12.886,12.886,0,0,0,7.373,2.343c5.168,0,8.889-3.17,8.889-8.407V157.977Z" transform="translate(-199.718 -103.298)" fill="#3dcfd2"/>
      <path id="Tracé_565" data-name="Tracé 565" d="M370.073,160.945a3.871,3.871,0,0,1,4,3.342H365.9a4.1,4.1,0,0,1,4.135-3.342m8.028,4.617c0-5.1-3.48-8.062-8.028-8.062a8.324,8.324,0,0,0-8.338,8.441c0,4.824,2.722,8.407,8.717,8.407a12.129,12.129,0,0,0,6.994-2.205l-1.654-2.929a9.82,9.82,0,0,1-5.168,1.619,4.433,4.433,0,0,1-4.686-3.411h12.059a12.1,12.1,0,0,0,.138-1.826" transform="translate(-237.079 -103.234)" fill="#3dcfd2"/>
      <path id="Tracé_566" data-name="Tracé 566" d="M7.878,163.885a3.616,3.616,0,0,1,1.413.345l.517-1.413a4.686,4.686,0,0,0-2.171-.517,3.312,3.312,0,0,0-3.583,3.583v.62H2.4v1.482H4.054v8.166H5.777v-8.166H8.843V166.5H5.811v-.586c0-1.309.689-2,2.1-2" transform="translate(-1.573 -106.38)" fill="#fff"/>
      <path id="Tracé_567" data-name="Tracé 567" d="M28.465,182.245a3.48,3.48,0,0,1,0-6.925,3.48,3.48,0,0,1,0,6.925m0,1.585a5.065,5.065,0,1,0-5.065-5.065,5.065,5.065,0,0,0,5.065,5.065" transform="translate(-15.338 -113.853)" fill="#fff"/>
      <path id="Tracé_568" data-name="Tracé 568" d="M59.3,183.581h1.723v-5.1c0-2.171,1.206-3.135,2.653-3.135a3.273,3.273,0,0,1,1,.172l.172-1.688a4.341,4.341,0,0,0-1.137-.138,2.86,2.86,0,0,0-2.756,1.688v-1.413H59.3Z" transform="translate(-38.869 -113.846)" fill="#fff"/>
      <path id="Tracé_569" data-name="Tracé 569" d="M32.111,67.564h0l.965,5.616a18.192,18.192,0,0,1-6,1.034,14.648,14.648,0,0,1-12.3-6.477A15.839,15.839,0,0,1,0,51.852,16.176,16.176,0,0,1,16.125,35.9,16.047,16.047,0,0,1,25.6,64.979,6.1,6.1,0,0,1,21.947,59.4v-.276a9.255,9.255,0,1,0-14.919-7.2,9.04,9.04,0,0,0,9.13,9.234,9.509,9.509,0,0,0,2.86-.448,9.13,9.13,0,0,0,4.031,6.305,6.064,6.064,0,0,0,2.24,1.068,9.13,9.13,0,0,0,6.822-.551" transform="translate(0 -23.531)" fill="#fff"/>
      <path id="Tracé_570" data-name="Tracé 570" d="M384.731,6.167l-4.031-.62L393.069,0l-5.547,12.369-.9-5.892,2.1-2.171Z" transform="translate(-249.532)" fill="#3dcfd2" fill-rule="evenodd"/>
    </g>
  </g>
</svg>
